PathFileType	4	(X/Y/Z)	/Users/niels/Desktop/University/Third Semester/Perception and Action/Exam/Gymnastics Motion Tracking/Code for Gym Tracking/Analyzed Data/Webcam_Backflip/id2_1_pure_Sports2D/id2_1_pure_Sports2D_px_person00.trc
DataRate	CameraRate	NumFrames	NumMarkers	Units	OrigDataRate	OrigDataStartFrame	OrigNumFrames
29.875	29.875	12	22	m	29.875	90	240
Frame#	Time	Hip			RHip			RKnee			RAnkle			RBigToe			RSmallToe			RHeel			LHip			LKnee			LAnkle			LBigToe			LSmallToe			LHeel			Neck			Head			Nose			RShoulder			RElbow			RWrist			LShoulder			LElbow			LWrist		
		X1	Y1	Z1	X2	Y2	Z2	X3	Y3	Z3	X4	Y4	Z4	X5	Y5	Z5	X6	Y6	Z6	X7	Y7	Z7	X8	Y8	Z8	X9	Y9	Z9	X10	Y10	Z10	X11	Y11	Z11	X12	Y12	Z12	X13	Y13	Z13	X14	Y14	Z14	X15	Y15	Z15	X16	Y16	Z16	X17	Y17	Z17	X18	Y18	Z18	X19	Y19	Z19	X20	Y20	Z20	X21	Y21	Z21	X22	Y22	Z22
90	3.01255230125523	0.9757138113023421	-0.5586521228168699	0.0	0.9746148720223815	-0.5582397809724917	0.0	0.9732698303559656	-0.6717024912227069	0.0	0.9446246663647211	-0.7934744692401674	0.0	0.9735960836861093	-0.8150411497816152	0.0	0.963791583281026	-0.8201003165950361	0.0	0.9349324215128568	-0.8105909781341447	0.0	0.9788208794155558	-0.5573606876909939	0.0	0.9757269649849919	-0.6706908539885872	0.0	0.9474755678567715	-0.786858792786397	0.0	0.9833856620798139	-0.8099732227415519	0.0	0.9773040311574621	-0.8050203646286169	0.0	0.9312060551506749	-0.7989703047177427	0.0	0.9747177722521628	-0.40120888710715147	0.0	0.9953830281940171	-0.32254247074656966	0.0	1.0001004115243652	-0.36239900226426464	0.0	0.9631609245237133	-0.40810993834265413	0.0	0.9653258508800537	-0.32573659195030225	0.0	0.9709781470672257	-0.25918764209628364	0.0	0.9751727726851984	-0.41134193408393466	0.0	0.9748636794181493	-0.3329320562360517	0.0	0.9742833131509476	-0.2650224974378552	0.0
91	3.0460251046025104	0.975517583018923	-0.5574713122448243	0.0	0.9744640294934747	-0.5571057965122429	0.0	0.9736983079311591	-0.6708577214078268	0.0	0.9444285277900891	-0.7926681180176013	0.0	0.9741251904325259	-0.8144799659969264	0.0	0.9641273451969335	-0.8194511600671822	0.0	0.9346986166858532	-0.8095116303609007	0.0	0.9787724517854034	-0.5562594715924178	0.0	0.9761011117728675	-0.6700012780329624	0.0	0.9473567236500595	-0.7860243517800192	0.0	0.9833145112772074	-0.8093646706508046	0.0	0.9770911755133688	-0.8047898768934293	0.0	0.9310972810370352	-0.7981016718601857	0.0	0.9744822940904893	-0.40042138504450586	0.0	0.9956413892714797	-0.32250198053265056	0.0	1.0000996766097856	-0.362378184631034	0.0	0.9625738967335215	-0.4068302839774751	0.0	0.9656751722753859	-0.32462181007955365	0.0	0.971685356972083	-0.25863260252196435	0.0	0.9746382629632715	-0.41052511282530735	0.0	0.9750468310245141	-0.3317750936938493	0.0	0.9751237258382907	-0.26443445350650185	0.0
92	3.0794979079497904	0.9753197535405371	-0.5558106298797391	0.0	0.9742052049321758	-0.5553499307089809	0.0	0.9738945037504492	-0.6698585210664152	0.0	0.9441878765668755	-0.791648803001533	0.0	0.9750342664523314	-0.8138635067902972	0.0	0.9648535578400385	-0.8186502909243086	0.0	0.9344516972680976	-0.8080820428111163	0.0	0.9787692954683829	-0.5545093163494041	0.0	0.9759883370502715	-0.6692168984008131	0.0	0.9470225440408819	-0.7851151531363808	0.0	0.9831380813496172	-0.8090087783776727	0.0	0.976840275456385	-0.8050409511183015	0.0	0.9308322813005321	-0.7974744626457867	0.0	0.9741681107715087	-0.3995385954398983	0.0	0.9958138247483075	-0.3224208390238959	0.0	1.0003270935053303	-0.3623744560539586	0.0	0.9619396991073506	-0.405485935262383	0.0	0.9659335283764764	-0.3235687284486339	0.0	0.9721200822763116	-0.2583071731600344	0.0	0.974175782625382	-0.40956560312289064	0.0	0.9749956479386269	-0.3305253599429979	0.0	0.9755979617740196	-0.2639721027516977	0.0
93	3.112970711297071	0.9751216939997616	-0.5538441162627853	0.0	0.9737715127324579	-0.5530728877046163	0.0	0.9738289500743409	-0.6689186474369905	0.0	0.943898111702017	-0.7904392096858902	0.0	0.9761894752473886	-0.8132894830082048	0.0	0.9658402298388258	-0.8177094344767819	0.0	0.9341655808600204	-0.806349858881991	0.0	0.9788161664515738	-0.5522413795963992	0.0	0.9754009941919366	-0.6684693720212657	0.0	0.9464205527441674	-0.784216416660794	0.0	0.982729355879018	-0.8090352765656081	0.0	0.9764700239137547	-0.8059052257259404	0.0	0.9303967134363257	-0.7971751011539558	0.0	0.9737079657852473	-0.39865933604065573	0.0	0.995915512935907	-0.3222960053796134	0.0	1.0008276654910084	-0.3623182549493237	0.0	0.9612520561590454	-0.40417809963028084	0.0	0.9660430832366221	-0.3227740426145403	0.0	0.9723116328915521	-0.25841348826418736	0.0	0.9739062895006539	-0.40854809069616616	0.0	0.9747074164666641	-0.3293995888337462	0.0	0.9757255863165633	-0.2637354249743976	0.0
94	3.1464435146443512	0.9748258119797335	-0.5518617165483333	0.0	0.9731530413328203	-0.5506420859633884	0.0	0.9735695508717473	-0.6681814791840469	0.0	0.9435519139911626	-0.7891381921339355	0.0	0.9773046672841	-0.8128575644729192	0.0	0.966807121445076	-0.8167404153881427	0.0	0.9338243277657323	-0.8045369284985742	0.0	0.9788154535635782	-0.5498230679264874	0.0	0.9745225705895129	-0.6678455045069903	0.0	0.9456621642918104	-0.783390781103127	0.0	0.9820944589699137	-0.8094264880181485	0.0	0.9759892661162646	-0.8071532504940698	0.0	0.9298502054239007	-0.7970855291331264	0.0	0.9730955697589908	-0.3978769116829125	0.0	0.9959063889676872	-0.32213051217107125	0.0	1.001434549046137	-0.36214563557748913	0.0	0.9605533433282184	-0.40300559491032883	0.0	0.9660138865763496	-0.3222555568500335	0.0	0.9723684140099773	-0.25883580468979206	0.0	0.9737247037548962	-0.40756396956019697	0.0	0.9742090723380679	-0.328492971179169	0.0	0.9756104118285741	-0.2635797259239007	0.0
95	3.1799163179916317	0.9743080914055932	-0.5502346998524851	0.0	0.9723894856030391	-0.548575021707301	0.0	0.9732244861397228	-0.6677006325798269	0.0	0.9431601353534976	-0.7879399468464764	0.0	0.9780122301296542	-0.8126158586089287	0.0	0.9673964894109526	-0.8159215436251495	0.0	0.9334602422826943	-0.8029673360883925	0.0	0.9785986826549233	-0.5477626024643825	0.0	0.9735925644687432	-0.6674061422231876	0.0	0.9449479857643633	-0.7827168018746519	0.0	0.9813741435854236	-0.8099799984816486	0.0	0.9754952065547884	-0.8083192018046114	0.0	0.9293318663976419	-0.7970787207368959	0.0	0.9723825787563574	-0.397270278673176	0.0	0.9957152129807578	-0.3219212820168779	0.0	1.0018715018766893	-0.361837479635607	0.0	0.959910832765205	-0.40206602198560826	0.0	0.9658768323506723	-0.3219296593371412	0.0	0.9723884955137415	-0.25924436493572106	0.0	0.9733416260795315	-0.4066864692140173	0.0	0.9735216159874718	-0.3278491916088775	0.0	0.9753479621091072	-0.26331212357237754	0.0
96	3.2133891213389116	0.9735174183258424	-0.5492254090938103	0.0	0.9715237506486081	-0.5472385924084054	0.0	0.9728450277748979	-0.6674852875305741	0.0	0.9427413259088865	-0.7870587393645241	0.0	0.9781218245206506	-0.8125200186556825	0.0	0.9674215144430024	-0.8153674397608136	0.0	0.9330792182858331	-0.8018816877738961	0.0	0.9780458745493571	-0.5464551854046497	0.0	0.9727828481420943	-0.6672147032866645	0.0	0.9444149250815284	-0.7822661398990518	0.0	0.9807628617326931	-0.8104203086084798	0.0	0.9751356790175986	-0.8090047784219121	0.0	0.9289538114193485	-0.7971071393181903	0.0	0.9716300718401821	-0.396907081625213	0.0	0.9953324511157285	-0.3216759714796751	0.0	1.0019419052263097	-0.3614478618452369	0.0	0.9593429724718243	-0.40143440236074246	0.0	0.9656407904001243	-0.32174835460239015	0.0	0.9724074839121647	-0.25940495771672	0.0	0.9725329852048528	-0.4059605617314189	0.0	0.9726751540467874	-0.3275302987460043	0.0	0.9750026543909421	-0.26290801851583073	0.0
97	3.246861924686192	0.9724878973895402	-0.5489385929495724	0.0	0.9705765732827999	-0.5467620883512235	0.0	0.972398538608354	-0.6675914441442834	0.0	0.9423121240570684	-0.7866758744475898	0.0	0.9777093487625933	-0.812471039122097	0.0	0.9669664859645499	-0.8151161969085663	0.0	0.9326443640627124	-0.8014244541053617	0.0	0.9771195007926793	-0.5460860144462997	0.0	0.9721523786617465	-0.6673605988149649	0.0	0.944101877958605	-0.782107477754428	0.0	0.9804667254757752	-0.8105550692387773	0.0	0.9750566753609724	-0.8090270796822636	0.0	0.9287735603842702	-0.7972280973878222	0.0	0.9708726521192014	-0.39682907298314196	0.0	0.9947971498312138	-0.3214410082460463	0.0	1.001590522462757	-0.36107090399239894	0.0	0.9588155967373495	-0.40115828653259183	0.0	0.9653139471454462	-0.3217866718842179	0.0	0.9724314404238343	-0.259342705910238	0.0	0.9712994326591441	-0.4054303611508844	0.0	0.9717440696683415	-0.3276187061201827	0.0	0.9746326525777559	-0.2625538547063174	0.0
98	3.2803347280334725	0.9712774422221109	-0.549421635287512	0.0	0.9695631471353224	-0.5471882709398217	0.0	0.9718274530337478	-0.6681365928585965	0.0	0.9418984343518453	-0.7869387631194924	0.0	0.9769594515120705	-0.8124382188710537	0.0	0.9662430963848424	-0.815228010403535	0.0	0.9321687045435096	-0.8017328902956289	0.0	0.9758233072418	-0.546704800343944	0.0	0.9716633892902488	-0.667929583198614	0.0	0.9440068651066599	-0.7823531161210948	0.0	0.9806377971357981	-0.8103793017619632	0.0	0.9753194053719806	-0.8084314772864817	0.0	0.9288247385382996	-0.7976201267179579	0.0	0.9701138797252725	-0.3970445956579228	0.0	0.9941328424345435	-0.32131396369015075	0.0	1.0008454426508073	-0.36079963348600047	0.0	0.9582797437785944	-0.4012767812779645	0.0	0.9649198553127774	-0.32220733949084956	0.0	0.9724779841268226	-0.25926340737256043	0.0	0.9698207601448421	-0.4051770002117026	0.0	0.9708593931069881	-0.32819829573524834	0.0	0.9743054108511703	-0.26253916590026205	0.0
99	3.313807531380753	0.9699402144027905	-0.5506280015170419	0.0	0.9685066874344336	-0.5484535351274132	0.0	0.9711167474921396	-0.6691922640177771	0.0	0.9415282148903004	-0.7878897700657108	0.0	0.9760519791421761	-0.8125303742943393	0.0	0.9654540344386711	-0.8157777623866072	0.0	0.9317313845881914	-0.8028309305240007	0.0	0.9742289320078336	-0.5481891721057335	0.0	0.9712138448576119	-0.668929251127712	0.0	0.9440774652593694	-0.7831210284427185	0.0	0.9812214069622666	-0.8101304963650963	0.0	0.9758092563427504	-0.8075671329958302	0.0	0.9290569110587639	-0.7984788575397044	0.0	0.9693246426201021	-0.39757201541309994	0.0	0.9933782199064901	-0.32143691346690634	0.0	0.9997907545382092	-0.36079122914429307	0.0	0.9576764512224649	-0.40182298328918425	0.0	0.9644724671446422	-0.32313212461209445	0.0	0.9725363509790396	-0.2594491070474979	0.0	0.9683322431293763	-0.4053061911762966	0.0	0.9701559590553411	-0.32928937136133485	0.0	0.9740710784311143	-0.2631073493255888	0.0
100	3.3472803347280333	0.9685534971620384	-0.552307991018096	0.0	0.9674191059982244	-0.5502413213632799	0.0	0.9703037063709873	-0.6706872025585858	0.0	0.9411964335869343	-0.7893556909879788	0.0	0.9751537599637701	-0.8129361101555076	0.0	0.9647618123916092	-0.8167423908964283	0.0	0.9313773598387981	-0.8044597003163573	0.0	0.9725178124138628	-0.5501594109739851	0.0	0.9706654693306396	-0.670249382629634	0.0	0.9441479799162491	-0.7844155564498372	0.0	0.9818556607550462	-0.8102521926988503	0.0	0.976196041709001	-0.8070769017869981	0.0	0.9292504328512757	-0.799847680289621	0.0	0.9684562443788636	-0.3984598797822282	0.0	0.9926148175819528	-0.3219762177853003	0.0	0.9985809214394812	-0.36128755714068267	0.0	0.9569312352750224	-0.4027745760620325	0.0	0.9639713644589605	-0.3245210352000322	0.0	0.9725268420492075	-0.26017935084691224	0.0	0.9670407470878947	-0.4058824250595255	0.0	0.9696861901260049	-0.3307521029326488	0.0	0.9739105655024067	-0.2643251451273551	0.0
101	3.3807531380753133	0.9672212076638999	-0.5540748932877222	0.0	0.9662966161677704	-0.5520925226325	0.0	0.9694244795383729	-0.672414874632169	0.0	0.9408590194973557	-0.7909901660663087	0.0	0.9743830519927423	-0.8137621294459227	0.0	0.9642611593800532	-0.817964169480152	0.0	0.9310641884619337	-0.8061905109867791	0.0	0.9709244891822453	-0.5521259211456605	0.0	0.9698977081638501	-0.6717013413734355	0.0	0.9439906854391836	-0.786068275375637	0.0	0.9820606738542398	-0.8111206465929751	0.0	0.976112441921593	-0.8075200110541947	0.0	0.9291358062087597	-0.8015667105666071	0.0	0.96749162970001	-0.3997045284718619	0.0	0.9919129856967246	-0.3230493471173584	0.0	0.9974001309946631	-0.36242259038833086	0.0	0.9559977749193779	-0.40401769004174914	0.0	0.9634186816142254	-0.3261737637240953	0.0	0.9723606667956498	-0.26154536175055515	0.0	0.9660718846684219	-0.40686711081277777	0.0	0.9693989339275607	-0.3323501273471643	0.0	0.973741564545558	-0.26602468502805443	0.0
